<?xml version="1.0" encoding="UTF-8" standalone="no"?><!DOCTYPE svg PUBLIC "-//W3C//DTD SVG 1.1//EN" "http://www.w3.org/Graphics/SVG/1.1/DTD/svg11.dtd"><svg width="100%" height="100%" viewBox="0 0 2134 2134" version="1.1" xmlns="http://www.w3.org/2000/svg" xmlns:xlink="http://www.w3.org/1999/xlink" xml:space="preserve" xmlns:serif="http://www.serif.com/" style="fill-rule:evenodd;clip-rule:evenodd;stroke-linejoin:round;stroke-miterlimit:2;"><path d="M1244.45,577.783c0,245.459 -198.992,444.434 -444.45,444.434c-245.458,-0 -444.45,-198.975 -444.45,-444.434c0,-245.459 198.992,-444.45 444.45,-444.45c245.458,0 444.45,198.991 444.45,444.45Z" style="fill:#a3bd31;fill-rule:nonzero;"/><path d="M1177.78,1200l-755.566,0c-232.797,0 -422.217,189.421 -422.217,422.217l-0,311.116c-0,36.8 29.867,66.667 66.667,66.667l1466.67,0c36.8,0 66.667,-29.867 66.667,-66.667l0,-311.116c0,-232.796 -189.421,-422.217 -422.217,-422.217Z" style="fill:#a3bd31;fill-rule:nonzero;"/><path d="M2112.09,884.442l-311.117,-288.884c-12.529,-11.654 -28.888,-17.691 -45.329,-17.691c-44.092,-0 -66.763,37.512 -66.763,66.583l0,200l-355.55,0c-49.154,0 -88.883,39.813 -88.883,88.883c-0,49.071 39.729,88.884 88.883,88.884l355.55,-0l0,200c0,36.979 30.046,66.666 66.667,66.666c16.537,0 32.813,-6.12 45.425,-17.775l311.117,-288.883c13.512,-12.629 21.241,-30.4 21.241,-48.892c0,-18.491 -7.729,-36.262 -21.241,-48.891Z" style="fill:#a3bd31;fill-rule:nonzero;"/></svg>